<mxfile host="app.diagrams.net" agent="Mozilla/5.0 (Windows NT 10.0; Win64; x64) AppleWebKit/537.36 (KHTML, like Gecko) Chrome/139.0.0.0 Safari/537.36" version="28.1.1">
  <diagram name="Página-1" id="gyHb8H76I85kEDsPoErL">
    <mxGraphModel dx="1901" dy="1036" grid="1" gridSize="10" guides="1" tooltips="1" connect="1" arrows="1" fold="1" page="1" pageScale="1" pageWidth="827" pageHeight="1169" math="0" shadow="0">
      <root>
        <mxCell id="0" />
        <mxCell id="1" parent="0" />
        <mxCell id="jmjpKAYUhPe7glShJi52-12" style="edgeStyle=orthogonalEdgeStyle;rounded=0;orthogonalLoop=1;jettySize=auto;html=1;exitX=0.5;exitY=1;exitDx=0;exitDy=0;" edge="1" parent="1" source="jmjpKAYUhPe7glShJi52-1">
          <mxGeometry relative="1" as="geometry">
            <mxPoint x="113" y="250" as="targetPoint" />
          </mxGeometry>
        </mxCell>
        <mxCell id="jmjpKAYUhPe7glShJi52-1" value="Inicio" style="ellipse;whiteSpace=wrap;html=1;" vertex="1" parent="1">
          <mxGeometry x="60" y="140" width="106" height="60" as="geometry" />
        </mxCell>
        <mxCell id="jmjpKAYUhPe7glShJi52-13" style="edgeStyle=orthogonalEdgeStyle;rounded=0;orthogonalLoop=1;jettySize=auto;html=1;exitX=0.5;exitY=1;exitDx=0;exitDy=0;exitPerimeter=0;" edge="1" parent="1" source="jmjpKAYUhPe7glShJi52-3">
          <mxGeometry relative="1" as="geometry">
            <mxPoint x="110" y="380" as="targetPoint" />
          </mxGeometry>
        </mxCell>
        <mxCell id="jmjpKAYUhPe7glShJi52-3" value="Exibe 5" style="strokeWidth=2;html=1;shape=mxgraph.flowchart.display;whiteSpace=wrap;" vertex="1" parent="1">
          <mxGeometry x="60" y="270" width="100" height="60" as="geometry" />
        </mxCell>
        <mxCell id="jmjpKAYUhPe7glShJi52-5" value="Fim" style="ellipse;whiteSpace=wrap;html=1;" vertex="1" parent="1">
          <mxGeometry x="60" y="400" width="106" height="60" as="geometry" />
        </mxCell>
        <mxCell id="jmjpKAYUhPe7glShJi52-6" value="EX1" style="text;html=1;align=center;verticalAlign=middle;whiteSpace=wrap;rounded=0;" vertex="1" parent="1">
          <mxGeometry x="83" y="80" width="60" height="30" as="geometry" />
        </mxCell>
        <mxCell id="jmjpKAYUhPe7glShJi52-10" value="EX2" style="text;html=1;align=center;verticalAlign=middle;whiteSpace=wrap;rounded=0;" vertex="1" parent="1">
          <mxGeometry x="354" y="80" width="60" height="30" as="geometry" />
        </mxCell>
        <mxCell id="jmjpKAYUhPe7glShJi52-17" style="edgeStyle=orthogonalEdgeStyle;rounded=0;orthogonalLoop=1;jettySize=auto;html=1;exitX=0.5;exitY=1;exitDx=0;exitDy=0;" edge="1" parent="1" source="jmjpKAYUhPe7glShJi52-11">
          <mxGeometry relative="1" as="geometry">
            <mxPoint x="384" y="240" as="targetPoint" />
          </mxGeometry>
        </mxCell>
        <mxCell id="jmjpKAYUhPe7glShJi52-11" value="Inicio" style="ellipse;whiteSpace=wrap;html=1;" vertex="1" parent="1">
          <mxGeometry x="331" y="140" width="106" height="60" as="geometry" />
        </mxCell>
        <mxCell id="jmjpKAYUhPe7glShJi52-18" style="edgeStyle=orthogonalEdgeStyle;rounded=0;orthogonalLoop=1;jettySize=auto;html=1;exitX=0.5;exitY=1;exitDx=0;exitDy=0;" edge="1" parent="1" source="jmjpKAYUhPe7glShJi52-14">
          <mxGeometry relative="1" as="geometry">
            <mxPoint x="387" y="360" as="targetPoint" />
          </mxGeometry>
        </mxCell>
        <mxCell id="jmjpKAYUhPe7glShJi52-14" value="&lt;div&gt;&lt;br&gt;&lt;/div&gt;Int numero" style="html=1;strokeWidth=2;shape=manualInput;whiteSpace=wrap;rounded=1;size=26;arcSize=11;" vertex="1" parent="1">
          <mxGeometry x="337" y="250" width="100" height="60" as="geometry" />
        </mxCell>
        <mxCell id="jmjpKAYUhPe7glShJi52-19" style="edgeStyle=orthogonalEdgeStyle;rounded=0;orthogonalLoop=1;jettySize=auto;html=1;exitX=0.5;exitY=1;exitDx=0;exitDy=0;exitPerimeter=0;" edge="1" parent="1" source="jmjpKAYUhPe7glShJi52-15">
          <mxGeometry relative="1" as="geometry">
            <mxPoint x="384" y="490" as="targetPoint" />
          </mxGeometry>
        </mxCell>
        <mxCell id="jmjpKAYUhPe7glShJi52-15" value="Exibe numero" style="strokeWidth=2;html=1;shape=mxgraph.flowchart.display;whiteSpace=wrap;" vertex="1" parent="1">
          <mxGeometry x="334" y="380" width="100" height="60" as="geometry" />
        </mxCell>
        <mxCell id="jmjpKAYUhPe7glShJi52-16" value="Fim" style="ellipse;whiteSpace=wrap;html=1;" vertex="1" parent="1">
          <mxGeometry x="337" y="500" width="106" height="60" as="geometry" />
        </mxCell>
        <mxCell id="jmjpKAYUhPe7glShJi52-21" value="EX3" style="text;html=1;align=center;verticalAlign=middle;whiteSpace=wrap;rounded=0;" vertex="1" parent="1">
          <mxGeometry x="640" y="80" width="60" height="30" as="geometry" />
        </mxCell>
        <mxCell id="jmjpKAYUhPe7glShJi52-30" style="edgeStyle=orthogonalEdgeStyle;rounded=0;orthogonalLoop=1;jettySize=auto;html=1;exitX=0.5;exitY=1;exitDx=0;exitDy=0;" edge="1" parent="1" source="jmjpKAYUhPe7glShJi52-22">
          <mxGeometry relative="1" as="geometry">
            <mxPoint x="670" y="240" as="targetPoint" />
          </mxGeometry>
        </mxCell>
        <mxCell id="jmjpKAYUhPe7glShJi52-22" value="Inicio" style="ellipse;whiteSpace=wrap;html=1;" vertex="1" parent="1">
          <mxGeometry x="617" y="140" width="106" height="60" as="geometry" />
        </mxCell>
        <mxCell id="jmjpKAYUhPe7glShJi52-31" style="edgeStyle=orthogonalEdgeStyle;rounded=0;orthogonalLoop=1;jettySize=auto;html=1;exitX=0.5;exitY=1;exitDx=0;exitDy=0;" edge="1" parent="1" source="jmjpKAYUhPe7glShJi52-23">
          <mxGeometry relative="1" as="geometry">
            <mxPoint x="673" y="370" as="targetPoint" />
          </mxGeometry>
        </mxCell>
        <mxCell id="jmjpKAYUhPe7glShJi52-23" value="&lt;div&gt;&lt;br&gt;&lt;/div&gt;float numero" style="html=1;strokeWidth=2;shape=manualInput;whiteSpace=wrap;rounded=1;size=26;arcSize=11;" vertex="1" parent="1">
          <mxGeometry x="623" y="250" width="100" height="60" as="geometry" />
        </mxCell>
        <mxCell id="jmjpKAYUhPe7glShJi52-32" style="edgeStyle=orthogonalEdgeStyle;rounded=0;orthogonalLoop=1;jettySize=auto;html=1;exitX=0.5;exitY=1;exitDx=0;exitDy=0;" edge="1" parent="1" source="jmjpKAYUhPe7glShJi52-25">
          <mxGeometry relative="1" as="geometry">
            <mxPoint x="673" y="500" as="targetPoint" />
          </mxGeometry>
        </mxCell>
        <mxCell id="jmjpKAYUhPe7glShJi52-25" value="areaQuadrado = ladoQuadrado * ladoQuadrado" style="rounded=1;whiteSpace=wrap;html=1;absoluteArcSize=1;arcSize=14;strokeWidth=2;" vertex="1" parent="1">
          <mxGeometry x="585.75" y="390" width="174.5" height="60" as="geometry" />
        </mxCell>
        <mxCell id="jmjpKAYUhPe7glShJi52-33" style="edgeStyle=orthogonalEdgeStyle;rounded=0;orthogonalLoop=1;jettySize=auto;html=1;exitX=0.5;exitY=1;exitDx=0;exitDy=0;exitPerimeter=0;" edge="1" parent="1" source="jmjpKAYUhPe7glShJi52-26">
          <mxGeometry relative="1" as="geometry">
            <mxPoint x="673" y="640" as="targetPoint" />
          </mxGeometry>
        </mxCell>
        <mxCell id="jmjpKAYUhPe7glShJi52-26" value="Exibe área" style="strokeWidth=2;html=1;shape=mxgraph.flowchart.display;whiteSpace=wrap;" vertex="1" parent="1">
          <mxGeometry x="623" y="520" width="100" height="60" as="geometry" />
        </mxCell>
        <mxCell id="jmjpKAYUhPe7glShJi52-27" value="Fim" style="ellipse;whiteSpace=wrap;html=1;" vertex="1" parent="1">
          <mxGeometry x="620" y="650" width="106" height="60" as="geometry" />
        </mxCell>
        <mxCell id="jmjpKAYUhPe7glShJi52-34" value="EX4" style="text;html=1;align=center;verticalAlign=middle;whiteSpace=wrap;rounded=0;" vertex="1" parent="1">
          <mxGeometry x="1211" y="80" width="60" height="30" as="geometry" />
        </mxCell>
        <mxCell id="jmjpKAYUhPe7glShJi52-56" style="edgeStyle=orthogonalEdgeStyle;rounded=0;orthogonalLoop=1;jettySize=auto;html=1;exitX=0.5;exitY=1;exitDx=0;exitDy=0;" edge="1" parent="1" source="jmjpKAYUhPe7glShJi52-35">
          <mxGeometry relative="1" as="geometry">
            <mxPoint x="1245.8333333333335" y="240" as="targetPoint" />
          </mxGeometry>
        </mxCell>
        <mxCell id="jmjpKAYUhPe7glShJi52-35" value="Inicio" style="ellipse;whiteSpace=wrap;html=1;" vertex="1" parent="1">
          <mxGeometry x="1193" y="140" width="106" height="60" as="geometry" />
        </mxCell>
        <mxCell id="jmjpKAYUhPe7glShJi52-57" style="edgeStyle=orthogonalEdgeStyle;rounded=0;orthogonalLoop=1;jettySize=auto;html=1;exitX=0.5;exitY=1;exitDx=0;exitDy=0;" edge="1" parent="1" source="jmjpKAYUhPe7glShJi52-36">
          <mxGeometry relative="1" as="geometry">
            <mxPoint x="1243.3333333333335" y="350" as="targetPoint" />
          </mxGeometry>
        </mxCell>
        <mxCell id="jmjpKAYUhPe7glShJi52-36" value="&lt;div&gt;&lt;br&gt;&lt;/div&gt;Int numero" style="html=1;strokeWidth=2;shape=manualInput;whiteSpace=wrap;rounded=1;size=26;arcSize=11;" vertex="1" parent="1">
          <mxGeometry x="1193" y="250" width="100" height="60" as="geometry" />
        </mxCell>
        <mxCell id="jmjpKAYUhPe7glShJi52-43" style="edgeStyle=orthogonalEdgeStyle;rounded=0;orthogonalLoop=1;jettySize=auto;html=1;" edge="1" parent="1" source="jmjpKAYUhPe7glShJi52-38">
          <mxGeometry relative="1" as="geometry">
            <mxPoint x="1123" y="530" as="targetPoint" />
          </mxGeometry>
        </mxCell>
        <mxCell id="jmjpKAYUhPe7glShJi52-46" style="edgeStyle=orthogonalEdgeStyle;rounded=0;orthogonalLoop=1;jettySize=auto;html=1;exitX=1;exitY=0.5;exitDx=0;exitDy=0;exitPerimeter=0;" edge="1" parent="1" source="jmjpKAYUhPe7glShJi52-38">
          <mxGeometry relative="1" as="geometry">
            <mxPoint x="1363" y="530" as="targetPoint" />
          </mxGeometry>
        </mxCell>
        <mxCell id="jmjpKAYUhPe7glShJi52-98" style="edgeStyle=orthogonalEdgeStyle;rounded=0;orthogonalLoop=1;jettySize=auto;html=1;exitX=0;exitY=0.5;exitDx=0;exitDy=0;exitPerimeter=0;" edge="1" parent="1" source="jmjpKAYUhPe7glShJi52-38">
          <mxGeometry relative="1" as="geometry">
            <mxPoint x="955" y="520" as="targetPoint" />
          </mxGeometry>
        </mxCell>
        <mxCell id="jmjpKAYUhPe7glShJi52-38" value="Num =&amp;gt; 1000" style="strokeWidth=2;html=1;shape=mxgraph.flowchart.decision;whiteSpace=wrap;" vertex="1" parent="1">
          <mxGeometry x="1196" y="370" width="100" height="100" as="geometry" />
        </mxCell>
        <mxCell id="jmjpKAYUhPe7glShJi52-53" style="edgeStyle=orthogonalEdgeStyle;rounded=0;orthogonalLoop=1;jettySize=auto;html=1;" edge="1" parent="1" source="jmjpKAYUhPe7glShJi52-41">
          <mxGeometry relative="1" as="geometry">
            <mxPoint x="1313" y="760" as="targetPoint" />
            <Array as="points">
              <mxPoint x="1364" y="760" />
            </Array>
          </mxGeometry>
        </mxCell>
        <mxCell id="jmjpKAYUhPe7glShJi52-41" value="Número menor que 1000" style="strokeWidth=2;html=1;shape=mxgraph.flowchart.display;whiteSpace=wrap;" vertex="1" parent="1">
          <mxGeometry x="1299" y="570" width="130" height="60" as="geometry" />
        </mxCell>
        <mxCell id="jmjpKAYUhPe7glShJi52-52" style="edgeStyle=orthogonalEdgeStyle;rounded=0;orthogonalLoop=1;jettySize=auto;html=1;exitX=0.5;exitY=1;exitDx=0;exitDy=0;exitPerimeter=0;" edge="1" parent="1" source="jmjpKAYUhPe7glShJi52-42">
          <mxGeometry relative="1" as="geometry">
            <mxPoint x="1183" y="760" as="targetPoint" />
            <Array as="points">
              <mxPoint x="1118" y="760" />
            </Array>
          </mxGeometry>
        </mxCell>
        <mxCell id="jmjpKAYUhPe7glShJi52-42" value="Número maior que 1000" style="strokeWidth=2;html=1;shape=mxgraph.flowchart.display;whiteSpace=wrap;" vertex="1" parent="1">
          <mxGeometry x="1053" y="570" width="130" height="60" as="geometry" />
        </mxCell>
        <mxCell id="jmjpKAYUhPe7glShJi52-47" value="True" style="text;html=1;align=center;verticalAlign=middle;whiteSpace=wrap;rounded=0;" vertex="1" parent="1">
          <mxGeometry x="1123" y="390" width="60" height="30" as="geometry" />
        </mxCell>
        <mxCell id="jmjpKAYUhPe7glShJi52-48" value="False" style="text;html=1;align=center;verticalAlign=middle;whiteSpace=wrap;rounded=0;" vertex="1" parent="1">
          <mxGeometry x="1304" y="390" width="60" height="30" as="geometry" />
        </mxCell>
        <mxCell id="jmjpKAYUhPe7glShJi52-50" value="Fim" style="ellipse;whiteSpace=wrap;html=1;" vertex="1" parent="1">
          <mxGeometry x="1193" y="730" width="106" height="60" as="geometry" />
        </mxCell>
        <mxCell id="jmjpKAYUhPe7glShJi52-54" value="EX5" style="text;html=1;align=center;verticalAlign=middle;whiteSpace=wrap;rounded=0;" vertex="1" parent="1">
          <mxGeometry x="2315" y="80" width="60" height="30" as="geometry" />
        </mxCell>
        <mxCell id="jmjpKAYUhPe7glShJi52-87" value="" style="edgeStyle=orthogonalEdgeStyle;rounded=0;orthogonalLoop=1;jettySize=auto;html=1;" edge="1" parent="1" source="jmjpKAYUhPe7glShJi52-55" target="jmjpKAYUhPe7glShJi52-58">
          <mxGeometry relative="1" as="geometry" />
        </mxCell>
        <mxCell id="jmjpKAYUhPe7glShJi52-55" value="Inicio" style="ellipse;whiteSpace=wrap;html=1;" vertex="1" parent="1">
          <mxGeometry x="2292" y="140" width="106" height="60" as="geometry" />
        </mxCell>
        <mxCell id="jmjpKAYUhPe7glShJi52-88" value="" style="edgeStyle=orthogonalEdgeStyle;rounded=0;orthogonalLoop=1;jettySize=auto;html=1;" edge="1" parent="1" source="jmjpKAYUhPe7glShJi52-58">
          <mxGeometry relative="1" as="geometry">
            <mxPoint x="2345" y="350" as="targetPoint" />
          </mxGeometry>
        </mxCell>
        <mxCell id="jmjpKAYUhPe7glShJi52-58" value="&lt;div&gt;&lt;br&gt;&lt;/div&gt;Int numero" style="html=1;strokeWidth=2;shape=manualInput;whiteSpace=wrap;rounded=1;size=26;arcSize=11;" vertex="1" parent="1">
          <mxGeometry x="2295" y="250" width="100" height="60" as="geometry" />
        </mxCell>
        <mxCell id="jmjpKAYUhPe7glShJi52-85" style="edgeStyle=orthogonalEdgeStyle;rounded=0;orthogonalLoop=1;jettySize=auto;html=1;" edge="1" parent="1" source="jmjpKAYUhPe7glShJi52-75">
          <mxGeometry relative="1" as="geometry">
            <mxPoint x="2345" y="580" as="targetPoint" />
          </mxGeometry>
        </mxCell>
        <mxCell id="jmjpKAYUhPe7glShJi52-59" value="&lt;div&gt;Index = 1&lt;/div&gt;Index &amp;lt;=10" style="strokeWidth=2;html=1;shape=mxgraph.flowchart.decision;whiteSpace=wrap;" vertex="1" parent="1">
          <mxGeometry x="2285" y="360" width="120" height="120" as="geometry" />
        </mxCell>
        <mxCell id="jmjpKAYUhPe7glShJi52-90" style="edgeStyle=orthogonalEdgeStyle;rounded=0;orthogonalLoop=1;jettySize=auto;html=1;" edge="1" parent="1" source="jmjpKAYUhPe7glShJi52-60">
          <mxGeometry relative="1" as="geometry">
            <mxPoint x="2184.9999999999995" y="620" as="targetPoint" />
          </mxGeometry>
        </mxCell>
        <mxCell id="jmjpKAYUhPe7glShJi52-60" value="numero * index" style="rounded=1;whiteSpace=wrap;html=1;absoluteArcSize=1;arcSize=14;strokeWidth=2;" vertex="1" parent="1">
          <mxGeometry x="2257.75" y="590" width="174.5" height="60" as="geometry" />
        </mxCell>
        <mxCell id="jmjpKAYUhPe7glShJi52-63" value="Fim" style="ellipse;whiteSpace=wrap;html=1;" vertex="1" parent="1">
          <mxGeometry x="2610" y="585" width="106" height="60" as="geometry" />
        </mxCell>
        <mxCell id="jmjpKAYUhPe7glShJi52-93" style="edgeStyle=orthogonalEdgeStyle;rounded=0;orthogonalLoop=1;jettySize=auto;html=1;entryX=0.5;entryY=1;entryDx=0;entryDy=0;" edge="1" parent="1" source="jmjpKAYUhPe7glShJi52-73" target="jmjpKAYUhPe7glShJi52-78">
          <mxGeometry relative="1" as="geometry" />
        </mxCell>
        <mxCell id="jmjpKAYUhPe7glShJi52-73" value="Index ++" style="rounded=1;whiteSpace=wrap;html=1;absoluteArcSize=1;arcSize=14;strokeWidth=2;" vertex="1" parent="1">
          <mxGeometry x="1870" y="595" width="90" height="50" as="geometry" />
        </mxCell>
        <mxCell id="jmjpKAYUhPe7glShJi52-76" style="edgeStyle=orthogonalEdgeStyle;rounded=0;orthogonalLoop=1;jettySize=auto;html=1;" edge="1" parent="1" source="jmjpKAYUhPe7glShJi52-69">
          <mxGeometry relative="1" as="geometry">
            <mxPoint x="2665" y="550" as="targetPoint" />
          </mxGeometry>
        </mxCell>
        <mxCell id="jmjpKAYUhPe7glShJi52-94" style="edgeStyle=orthogonalEdgeStyle;rounded=0;orthogonalLoop=1;jettySize=auto;html=1;" edge="1" parent="1" source="jmjpKAYUhPe7glShJi52-78">
          <mxGeometry relative="1" as="geometry">
            <mxPoint x="2274.9999999999995" y="425.0000000000001" as="targetPoint" />
          </mxGeometry>
        </mxCell>
        <mxCell id="jmjpKAYUhPe7glShJi52-78" value="Loop" style="text;html=1;align=center;verticalAlign=middle;whiteSpace=wrap;rounded=0;" vertex="1" parent="1">
          <mxGeometry x="1885" y="410" width="60" height="30" as="geometry" />
        </mxCell>
        <mxCell id="jmjpKAYUhPe7glShJi52-84" value="" style="edgeStyle=orthogonalEdgeStyle;rounded=0;orthogonalLoop=1;jettySize=auto;html=1;" edge="1" parent="1" source="jmjpKAYUhPe7glShJi52-59" target="jmjpKAYUhPe7glShJi52-69">
          <mxGeometry relative="1" as="geometry">
            <mxPoint x="2405" y="420" as="sourcePoint" />
            <mxPoint x="2665" y="530" as="targetPoint" />
          </mxGeometry>
        </mxCell>
        <mxCell id="jmjpKAYUhPe7glShJi52-69" value="&lt;div&gt;False&lt;/div&gt;" style="text;html=1;align=center;verticalAlign=middle;whiteSpace=wrap;rounded=0;" vertex="1" parent="1">
          <mxGeometry x="2483" y="405" width="60" height="30" as="geometry" />
        </mxCell>
        <mxCell id="jmjpKAYUhPe7glShJi52-86" value="" style="edgeStyle=orthogonalEdgeStyle;rounded=0;orthogonalLoop=1;jettySize=auto;html=1;entryX=0.5;entryY=0;entryDx=0;entryDy=0;" edge="1" parent="1" source="jmjpKAYUhPe7glShJi52-59" target="jmjpKAYUhPe7glShJi52-75">
          <mxGeometry relative="1" as="geometry">
            <mxPoint x="2345" y="480" as="sourcePoint" />
            <mxPoint x="2345" y="590" as="targetPoint" />
          </mxGeometry>
        </mxCell>
        <mxCell id="jmjpKAYUhPe7glShJi52-75" value="True" style="text;html=1;align=center;verticalAlign=middle;whiteSpace=wrap;rounded=0;" vertex="1" parent="1">
          <mxGeometry x="2315" y="510" width="60" height="30" as="geometry" />
        </mxCell>
        <mxCell id="jmjpKAYUhPe7glShJi52-92" value="" style="edgeStyle=orthogonalEdgeStyle;rounded=0;orthogonalLoop=1;jettySize=auto;html=1;" edge="1" parent="1" source="jmjpKAYUhPe7glShJi52-89">
          <mxGeometry relative="1" as="geometry">
            <mxPoint x="1975" y="620" as="targetPoint" />
          </mxGeometry>
        </mxCell>
        <mxCell id="jmjpKAYUhPe7glShJi52-89" value="Exibe Resultado&amp;nbsp;" style="strokeWidth=2;html=1;shape=mxgraph.flowchart.display;whiteSpace=wrap;" vertex="1" parent="1">
          <mxGeometry x="2045" y="590" width="130" height="60" as="geometry" />
        </mxCell>
        <mxCell id="jmjpKAYUhPe7glShJi52-97" value="Número igual á 1000" style="strokeWidth=2;html=1;shape=mxgraph.flowchart.display;whiteSpace=wrap;" vertex="1" parent="1">
          <mxGeometry x="890" y="570" width="130" height="60" as="geometry" />
        </mxCell>
        <mxCell id="jmjpKAYUhPe7glShJi52-99" style="edgeStyle=orthogonalEdgeStyle;rounded=0;orthogonalLoop=1;jettySize=auto;html=1;exitX=0.5;exitY=1;exitDx=0;exitDy=0;exitPerimeter=0;entryX=0.566;entryY=1;entryDx=0;entryDy=0;entryPerimeter=0;" edge="1" parent="1" source="jmjpKAYUhPe7glShJi52-97" target="jmjpKAYUhPe7glShJi52-50">
          <mxGeometry relative="1" as="geometry" />
        </mxCell>
      </root>
    </mxGraphModel>
  </diagram>
</mxfile>
